<svg xmlns="http://www.w3.org/2000/svg" xmlns:xlink="http://www.w3.org/1999/xlink" version="1.1" width="1000" height="1000" viewBox="0 0 1000 1000" xml:space="preserve">
<desc>Created with Fabric.js 3.5.0</desc>
<defs>
</defs>
<rect x="0" y="0" width="100%" height="100%" fill="rgba(255,255,255,0)"/>
<g transform="matrix(7.1023 0 0 7.1023 500 480.0016)" id="721812">
<g style="" vector-effect="non-scaling-stroke">
		<g transform="matrix(1 0 0 1 31.7178 1)" id="Layer_1">
<path style="stroke: none; stroke-width: 1; stroke-dasharray: none; stroke-linecap: butt; stroke-dashoffset: 0; stroke-linejoin: miter; stroke-miterlimit: 4; is-custom-font: none; font-file-url: none; fill: rgb(0,0,0); fill-opacity: 0; fill-rule: nonzero; opacity: 1;" transform=" translate(-95.7178, -65)" d="M 79 1 C 95.636856 1 112.273712 1 128.955292 1 C 128.955292 43.560497 128.955292 86.121056 128.955292 129 C 106.980125 129 84.958725 129 62.480278 128.633392 C 62.694374 127.660637 63.267006 126.745255 64.051605 126.495361 C 73.820328 123.384003 75.493225 116.097778 73.970261 107.259018 C 73.077408 102.077194 74.989944 99.060265 80.00811 97.381905 C 82.889282 96.418289 85.481857 94.542877 88.135765 92.962738 C 90.668846 91.454536 92.294037 89.511765 92.069756 86.16552 C 91.7808 81.85421 92.147018 77.500961 91.915169 73.182739 C 91.838661 71.757744 90.782104 70.385384 89.997353 68.674271 C 85.230431 65.82151 80.639832 63.283424 76.032333 60.295345 C 76.391632 54.528988 76.76783 49.212624 77.443214 44.071548 C 80.134239 45.622063 82.493454 47.05814 84.924026 48.361095 C 92.212997 52.268486 99.529839 56.123875 107.020889 60.321907 C 111.470299 58.618557 115.821617 56.752949 119.963493 54.501968 C 122.147079 53.315254 125.565117 51.553185 125.666512 49.883343 C 126.068314 43.266178 125.380852 36.58287 124.94297 29.603313 C 120.799049 26.628439 116.849663 23.910725 112.804314 21.344269 C 110.406868 19.82328 107.887955 18.483944 105.371696 17.161825 C 97.055428 12.792208 88.687935 8.518499 80.428986 4.043903 C 79.63578 3.614149 79.461563 2.041883 79 1 z" stroke-linecap="round"/>
</g>
		<g transform="matrix(1 0 0 1 -29.7053 1)" id="Layer_1">
<path style="stroke: none; stroke-width: 1; stroke-dasharray: none; stroke-linecap: butt; stroke-dashoffset: 0; stroke-linejoin: miter; stroke-miterlimit: 4; is-custom-font: none; font-file-url: none; fill: rgb(0,0,0); fill-opacity: 0; fill-rule: nonzero; opacity: 1;" transform=" translate(-34.2948, -65)" d="M 52 129 C 35.030277 129 18.060558 129 1.045418 129 C 1.045418 86.439644 1.045418 43.879234 1.045418 1 C 23.019869 1 45.041275 1 67.54409 1.369702 C 65.975693 3.165145 64.034523 4.788984 61.857563 5.982871 C 51.583054 11.617603 41.157391 16.981279 30.955727 22.742805 C 22.987783 27.242805 15.241866 32.140522 7.473705 36.984062 C 6.462692 37.614441 5.908153 38.976917 5.089618 40.465721 C 5.02514 46.428703 4.835203 51.935013 5.10487 57.418716 C 5.19083 59.166706 6.02729 61.529823 7.335497 62.440548 C 10.921687 64.937119 14.815621 67.111031 18.84511 68.797829 C 20.684038 69.567627 23.365721 69.491081 25.250307 68.747276 C 29.451244 67.089233 33.391212 64.769981 37.257641 63.18346 C 37.077755 81.743591 37.077755 99.840431 37.077755 117.937271 C 37.988514 100.318237 37.996662 82.703949 37.961483 65.089745 C 37.959923 64.310211 37.563145 63.531464 37.433277 62.449348 C 38.000004 61.771931 38.483917 61.397514 38.981621 61.490128 C 38.996937 78.771164 39.275501 95.592232 38.847527 112.395302 C 38.700657 118.161774 40.533886 121.584328 45.567001 124.023796 C 47.954445 125.180939 49.87043 127.310806 52 129 z" stroke-linecap="round"/>
</g>
		<g transform="matrix(1 0 0 1 0.9197 -38.6835)" id="Layer_1">
<path style="stroke: none; stroke-width: 1; stroke-dasharray: none; stroke-linecap: butt; stroke-dashoffset: 0; stroke-linejoin: miter; stroke-miterlimit: 4; is-custom-font: none; font-file-url: none; fill: rgb(246,187,57); fill-rule: nonzero; opacity: 1;" transform=" translate(-64.9196, -25.3165)" d="M 5.142176 40.000286 C 5.908153 38.976917 6.462692 37.614441 7.473705 36.984062 C 15.241866 32.140522 22.987783 27.242805 30.955727 22.742805 C 41.157391 16.981279 51.583054 11.617603 61.857563 5.982871 C 64.034523 4.788984 65.975693 3.165145 68.012749 1.369702 C 71.36129 1 74.722572 1 78.541931 1 C 79.461563 2.041883 79.63578 3.614149 80.428986 4.043903 C 88.687935 8.518499 97.055428 12.792208 105.371696 17.161825 C 107.887955 18.483944 110.406868 19.82328 112.804314 21.344269 C 116.849663 23.910725 120.799049 26.628439 124.697083 29.844921 C 119.047867 33.636131 113.490364 36.86496 107.576164 40.038986 C 96.490883 33.823376 85.762306 27.662569 74.401901 21.138937 C 70.512764 23.541294 66.050163 26.537941 61.369339 29.142393 C 49.336746 35.837444 37.22599 42.393333 25.086189 48.892239 C 23.949482 49.500763 22.05121 49.92244 21.074837 49.389572 C 15.666696 46.438007 10.434582 43.16391 5.142176 40.000286 z" stroke-linecap="round"/>
</g>
		<g transform="matrix(1 0 0 1 0.34 25.8529)" id="Layer_1">
<path style="stroke: none; stroke-width: 1; stroke-dasharray: none; stroke-linecap: butt; stroke-dashoffset: 0; stroke-linejoin: miter; stroke-miterlimit: 4; is-custom-font: none; font-file-url: none; fill: rgb(33,150,243); fill-rule: nonzero; opacity: 1;" transform=" translate(-64.34, -89.8528)" d="M 52.416668 129 C 49.87043 127.310806 47.954445 125.180939 45.567001 124.023796 C 40.533886 121.584328 38.700657 118.161774 38.847527 112.395302 C 39.275501 95.592232 38.996937 78.771164 39.27224 61.304787 C 44.751759 57.531723 49.954445 54.411034 56.131878 50.705666 C 56.131878 57.858746 56.131878 63.433231 56.131878 70.521515 C 63.0126 65.893478 68.92646 61.915764 74.928696 58.27914 C 75.361122 59.328602 75.70517 60.036972 76.049225 60.745338 C 80.639832 63.283424 85.230431 65.82151 89.840645 69.002426 C 87.871452 71.113914 86.082298 73.096992 83.858459 73.960106 C 75.282509 77.288605 74.000114 78.934319 74.000114 88.354546 C 74.000114 91.80204 74.000114 95.249542 74.000114 99.444168 C 68.040688 96.549355 62.720131 93.964874 57 91.186302 C 57 104.10421 57 116.552109 57 129 C 55.611111 129 54.222221 129 52.416668 129 z" stroke-linecap="round"/>
</g>
		<g transform="matrix(1 0 0 1 10.5452 35.1585)" id="Layer_1">
<path style="stroke: none; stroke-width: 1; stroke-dasharray: none; stroke-linecap: butt; stroke-dashoffset: 0; stroke-linejoin: miter; stroke-miterlimit: 4; is-custom-font: none; font-file-url: none; fill: rgb(235,140,35); fill-rule: nonzero; opacity: 1;" transform=" translate(-74.5452, -99.1586)" d="M 57.416664 129 C 57 116.552109 57 104.10421 57 91.186302 C 62.720131 93.964874 68.040688 96.549355 74.000114 99.444168 C 74.000114 95.249542 74.000114 91.80204 74.000114 88.354546 C 74.000114 78.934319 75.282509 77.288605 83.858459 73.960106 C 86.082298 73.096992 87.871452 71.113914 90.016968 69.317108 C 90.782104 70.385384 91.838661 71.757744 91.915169 73.182739 C 92.147018 77.500961 91.7808 81.85421 92.069756 86.16552 C 92.294037 89.511765 90.668846 91.454536 88.135765 92.962738 C 85.481857 94.542877 82.889282 96.418289 80.00811 97.381905 C 74.989944 99.060265 73.077408 102.077194 73.970261 107.259018 C 75.493225 116.097778 73.820328 123.384003 64.051605 126.495361 C 63.267006 126.745255 62.694374 127.660637 62.01162 128.633392 C 60.611111 129 59.222221 129 57.416664 129 z" stroke-linecap="round"/>
</g>
		<g transform="matrix(1 0 0 1 -7.5031 -18.1698)" id="Layer_1">
<path style="stroke: none; stroke-width: 1; stroke-dasharray: none; stroke-linecap: butt; stroke-dashoffset: 0; stroke-linejoin: miter; stroke-miterlimit: 4; is-custom-font: none; font-file-url: none; fill: rgb(1,87,155); fill-rule: nonzero; opacity: 1;" transform=" translate(-56.4969, -45.8302)" d="M 74.840317 57.938049 C 68.92646 61.915764 63.0126 65.893478 56.131878 70.521515 C 56.131878 63.433231 56.131878 57.858746 56.131878 50.705666 C 49.954445 54.411034 44.751759 57.531723 39.258453 60.837753 C 38.483917 61.397514 38.000004 61.771931 37.459053 62.450439 C 37.402016 62.754532 37.437527 62.720173 37.437527 62.720169 C 33.391212 64.769981 29.451244 67.089233 25.250307 68.747276 C 23.365721 69.491081 20.684038 69.567627 18.84511 68.797829 C 14.815621 67.111031 10.921687 64.937119 7.335497 62.440548 C 6.02729 61.529823 5.19083 59.166706 5.10487 57.418716 C 4.835203 51.935013 5.02514 46.428703 5.089618 40.465721 C 10.434582 43.16391 15.666696 46.438007 21.074837 49.389572 C 22.05121 49.92244 23.949482 49.500763 25.086189 48.892239 C 37.22599 42.393333 49.336746 35.837444 61.369339 29.142393 C 66.050163 26.537941 70.512764 23.541294 74.401901 21.138937 C 85.762306 27.662569 96.490883 33.823376 107.604324 40.498505 C 107.993004 42.829845 108.107674 44.65477 107.978783 46.462322 C 107.656715 50.978935 107.224075 55.487671 106.835808 59.999565 C 99.529839 56.123875 92.212997 52.268486 84.924026 48.361095 C 82.493454 47.05814 80.134239 45.622063 77.371826 43.851608 C 77.001236 43.456379 76.847641 43.020142 76.832321 42.701057 C 76.274429 42.596745 75.731857 42.81152 75.128006 43.487247 C 74.991249 48.611485 74.915779 53.274769 74.840317 57.938049 z" stroke-linecap="round"/>
</g>
		<g transform="matrix(1 0 0 1 52.404 -18.7562)" id="Layer_1">
<path style="stroke: none; stroke-width: 1; stroke-dasharray: none; stroke-linecap: butt; stroke-dashoffset: 0; stroke-linejoin: miter; stroke-miterlimit: 4; is-custom-font: none; font-file-url: none; fill: rgb(235,140,35); fill-rule: nonzero; opacity: 1;" transform=" translate(-116.404, -45.2438)" d="M 107.020889 60.321907 C 107.224075 55.487671 107.656715 50.978935 107.978783 46.462322 C 108.107674 44.65477 107.993004 42.829845 107.961029 40.55331 C 113.490364 36.86496 119.047867 33.636131 124.851257 30.165691 C 125.380852 36.58287 126.068314 43.266178 125.666512 49.883343 C 125.565117 51.553185 122.147079 53.315254 119.963493 54.501968 C 115.821617 56.752949 111.470299 58.618557 107.020889 60.321907 z" stroke-linecap="round"/>
</g>
		<g transform="matrix(1 0 0 1 12 -12.3423)" id="Layer_1">
<path style="stroke: none; stroke-width: 1; stroke-dasharray: none; stroke-linecap: butt; stroke-dashoffset: 0; stroke-linejoin: miter; stroke-miterlimit: 4; is-custom-font: none; font-file-url: none; fill: rgb(255,133,6); fill-rule: nonzero; opacity: 1;" transform=" translate(-76, -51.6577)" d="M 76.847641 43.020142 C 76.847641 43.020142 77.001236 43.456379 77.072632 43.676319 C 76.76783 49.212624 76.391632 54.528988 76.032333 60.295349 C 75.70517 60.036972 75.361122 59.328602 74.928696 58.279144 C 74.915779 53.274769 74.991249 48.611485 75.404373 43.483444 C 76.110558 43.019173 76.479103 43.019657 76.847641 43.020142 z" stroke-linecap="round"/>
</g>
		<g transform="matrix(1 0 0 1 -26.4753 26.3452)" id="Layer_1">
<path style="stroke: none; stroke-width: 1; stroke-dasharray: none; stroke-linecap: butt; stroke-dashoffset: 0; stroke-linejoin: miter; stroke-miterlimit: 4; is-custom-font: none; font-file-url: none; fill: rgb(255,0,0); fill-rule: nonzero; opacity: 1;" transform=" translate(-37.5246, -90.3452)" d="M 37.257641 63.183464 C 37.437527 62.720173 37.402016 62.754532 37.376236 62.753441 C 37.563145 63.531464 37.959923 64.310211 37.961483 65.089745 C 37.996662 82.703949 37.988514 100.318237 37.077755 117.937271 C 37.077755 99.840431 37.077755 81.743591 37.257641 63.183464 z" stroke-linecap="round"/>
</g>
		<g transform="matrix(1 0 0 1 12.149 -21.1518)" id="Layer_1">
<path style="stroke: none; stroke-width: 1; stroke-dasharray: none; stroke-linecap: butt; stroke-dashoffset: 0; stroke-linejoin: miter; stroke-miterlimit: 4; is-custom-font: none; font-file-url: none; fill: rgb(241,134,26); fill-rule: nonzero; opacity: 1;" transform=" translate(-76.149, -42.8482)" d="M 76.832321 42.701057 C 76.479103 43.019657 76.110558 43.019173 75.465652 43.022491 C 75.731857 42.81152 76.274429 42.596745 76.832321 42.701057 z" stroke-linecap="round"/>
</g>
</g>
</g>
</svg>